<?xml version="1.0" encoding="UTF-8" standalone="no"?>
<!-- Created with Inkscape (http://www.inkscape.org/) -->

<svg
   version="1.1"
   id="svg2"
   xml:space="preserve"
   width="1000"
   height="666.66669"
   viewBox="0 0 1000 666.66669"
   sodipodi:docname="PIC6.eps"
   xmlns:inkscape="http://www.inkscape.org/namespaces/inkscape"
   xmlns:sodipodi="http://sodipodi.sourceforge.net/DTD/sodipodi-0.dtd"
   xmlns="http://www.w3.org/2000/svg"
   xmlns:svg="http://www.w3.org/2000/svg"><defs
     id="defs6"><linearGradient
       x1="0"
       y1="0"
       x2="1"
       y2="0"
       gradientUnits="userSpaceOnUse"
       gradientTransform="matrix(-7.74e-5,1770.25,1770.25,7.74e-5,3750,3260)"
       spreadMethod="pad"
       id="linearGradient16"><stop
         style="stop-opacity:1;stop-color:#dff3fa"
         offset="0"
         id="stop12" /><stop
         style="stop-opacity:1;stop-color:#ace1f8"
         offset="1"
         id="stop14" /></linearGradient></defs><sodipodi:namedview
     id="namedview4"
     pagecolor="#ffffff"
     bordercolor="#666666"
     borderopacity="1.0"
     inkscape:pageshadow="2"
     inkscape:pageopacity="0.0"
     inkscape:pagecheckerboard="0" /><g
     id="g8"
     inkscape:groupmode="layer"
     inkscape:label="ink_ext_XXXXXX"
     transform="matrix(1.3333333,0,0,-1.3333333,0,666.66667)"><g
       id="g10"
       transform="scale(0.1)"><path
         d="M 7500,0 H 0 V 4999.98 L 7500,5000 V 0"
         style="fill:url(#linearGradient16);fill-opacity:1;fill-rule:nonzero;stroke:none"
         id="path18" /><path
         d="M 7500,470.23 H 1665.01 V 4591.9 H 7500 V 470.23"
         style="fill:#7ccd5e;fill-opacity:1;fill-rule:nonzero;stroke:none"
         id="path20" /><path
         d="m 2462.24,4471 c 0,-35.9 -29.1,-65 -65,-65 -35.9,0 -65,29.1 -65,65 0,35.89 29.1,65 65,65 35.9,0 65,-29.11 65,-65"
         style="fill:#e9edf8;fill-opacity:1;fill-rule:nonzero;stroke:none"
         id="path22" /><path
         d="m 2429.74,4467.52 c 0,-16.57 -13.43,-30 -30,-30 h -5 c -16.57,0 -30,13.43 -30,30 v 251.25 c 0,16.57 13.43,30 30,30 h 5 c 16.57,0 30,-13.43 30,-30 v -251.25"
         style="fill:#727883;fill-opacity:1;fill-rule:nonzero;stroke:none"
         id="path24" /><path
         d="m 4718.13,4471 c 0,-35.9 -29.11,-65 -65,-65 -35.9,0 -65,29.1 -65,65 0,35.89 29.1,65 65,65 35.89,0 65,-29.11 65,-65"
         style="fill:#e9edf8;fill-opacity:1;fill-rule:nonzero;stroke:none"
         id="path26" /><path
         d="m 4685.63,4467.52 c 0,-16.57 -13.44,-30 -30,-30 h -5 c -16.58,0 -30,13.43 -30,30 v 251.25 c 0,16.57 13.42,30 30,30 h 5 c 16.56,0 30,-13.43 30,-30 v -251.25"
         style="fill:#727883;fill-opacity:1;fill-rule:nonzero;stroke:none"
         id="path28" /><path
         d="m 6974,4471 c 0,-35.9 -29.1,-65 -65,-65 -35.89,0 -65,29.1 -65,65 0,35.89 29.11,65 65,65 35.9,0 65,-29.11 65,-65"
         style="fill:#e9edf8;fill-opacity:1;fill-rule:nonzero;stroke:none"
         id="path30" /><path
         d="m 6941.5,4467.52 c 0,-16.57 -13.43,-30 -30,-30 h -5 c -16.56,0 -30,13.43 -30,30 v 251.25 c 0,16.57 13.44,30 30,30 h 5 c 16.57,0 30,-13.43 30,-30 v -251.25"
         style="fill:#727883;fill-opacity:1;fill-rule:nonzero;stroke:none"
         id="path32" /><path
         d="M 7499.41,4678.56 H 1455.64 v 108.88 h 6043.77 v -108.88"
         style="fill:#272e42;fill-opacity:1;fill-rule:nonzero;stroke:none"
         id="path34" /><path
         d="m 4829.86,2735.71 c -146.72,0 -316.53,-72.39 -329.86,-366.23 -13.33,-293.84 20,-498.87 0,-829.69 -20,-330.81 -126.66,-914.142 -126.66,-914.142 h 1920 c 0,0 126.66,1554.712 140,1714.022 13.33,159.3 -16.68,396.04 -363.34,396.04 -346.66,0 -1240.14,0 -1240.14,0"
         style="fill:#202637;fill-opacity:1;fill-rule:nonzero;stroke:none"
         id="path36" /><path
         d="m 5990.55,2204.2 c -1.07,10.91 -3.28,21.31 -6.96,31.24 v 0.01 c -7.56,20.4 -21.21,38.88 -43.57,56.01 -38.67,29.65 -344.6,252.77 -481.17,352.3 -0.49,10.2 -2.15,17.71 -7.15,22.29 -5,4.58 -77.11,57.92 -77.11,57.92 l -17.81,11.74 c -225.7,0 -426.84,0 -498.75,0 l -14.01,-103.25 -47.54,-40.99 c 0,0 -75.62,-52.5 -78.75,-56.25 -0.66,-0.8 -6.23,-13.43 -14.58,-32.81 -49.56,-35.61 -131.32,-94.42 -203.71,-146.6 -11.71,-286.55 20.25,-490.38 0.56,-816.02 -13.95,-230.56 -69.97,-583.751 -102.66,-776.661 h 729.36 v -76.66 c 0,0 701.66,0 864.69,0 163.02,0 225.31,141.672 248.63,181.672 23.34,40 25,105 13.34,156.669 -10.53,46.63 -221.62,994.48 -262.81,1179.39"
         style="fill:#161a25;fill-opacity:1;fill-rule:nonzero;stroke:none"
         id="path38" /><path
         d="m 6228.69,2714.2 c -98.77,1.38 -152.03,-32.78 -168.69,-127.3 -16.66,-94.59 -30,-277.92 -30,-327.92 0,-50 102.27,-200.87 99.47,-320.44 -2.18,-93.09 -122.4,-941.751 -175.52,-1312.892 h 339.39 c 0,0 126.66,1554.712 140,1714.022 10.92,130.46 -7.36,312.74 -204.65,374.53"
         style="fill:#2b334a;fill-opacity:1;fill-rule:nonzero;stroke:none"
         id="path40" /><path
         d="m 6293.48,627.441 c 0.11,1.461 0.31,3.809 0.58,7.11 0.06,0.699 0.12,1.449 0.18,2.238 0.25,3.012 0.54,6.551 0.88,10.742 0.29,3.52 0.6,7.469 0.95,11.778 0.43,5.191 0.9,10.921 1.41,17.211 0.04,0.48 0.08,0.941 0.12,1.429 1.31,16.082 2.89,35.461 4.71,57.942 0.29,3.418 0.57,6.898 0.85,10.461 0.14,1.648 0.28,3.207 0.41,4.878 0,0.071 0,0.149 0.01,0.211 3.08,37.778 6.76,82.891 10.88,133.489 0.01,0.121 0.02,0.242 0.03,0.359 2.32,28.352 4.77,58.441 7.34,89.961 3.65,44.77 7.54,92.46 11.59,142.15 l -230.67,583.06 C 6062.38,1394.23 5988.61,867.859 5953.95,625.648 h 339.39 c 0,0 0.02,0.293 0.06,0.774 0.02,0.258 0.05,0.598 0.08,1.019"
         style="fill:#1f2435;fill-opacity:1;fill-rule:nonzero;stroke:none"
         id="path42" /><path
         d="M 7500,0 H 0 V 453.18 H 7500 V 0"
         style="fill:#597194;fill-opacity:1;fill-rule:nonzero;stroke:none"
         id="path44" /><path
         d="M 7500,176.898 H 0 V 470.23 H 7500 V 176.898"
         style="fill:#6c88b1;fill-opacity:1;fill-rule:nonzero;stroke:none"
         id="path46" /><path
         d="M 7500,393.148 H 0 v 77.082 h 7500 v -77.082"
         style="fill:#a5c0e4;fill-opacity:1;fill-rule:nonzero;stroke:none"
         id="path48" /><path
         d="M 7500,408.98 H 0 V 702.309 H 7500 V 408.98"
         style="fill:#8199b9;fill-opacity:1;fill-rule:nonzero;stroke:none"
         id="path50" /><path
         d="m 3344.76,1170.65 c 3.42,-16.57 -7.23,-30 -23.8,-30 H 815.961 c -16.566,0 -32.777,13.43 -36.203,30 l -390.09,1886.21 c -3.43,16.57 7.227,30 23.793,30 H 2918.46 c 16.57,0 32.78,-13.43 36.21,-30 l 390.09,-1886.21"
         style="fill:#3b4464;fill-opacity:1;fill-rule:nonzero;stroke:none"
         id="path52" /><path
         d="m 3264.76,1170.65 c 3.42,-16.57 -7.23,-30 -23.8,-30 H 735.961 c -16.566,0 -32.777,13.43 -36.203,30 l -390.09,1886.21 c -3.43,16.57 7.227,30 23.793,30 H 2838.46 c 16.57,0 32.78,-13.43 36.21,-30 l 390.09,-1886.21"
         style="fill:#1f2435;fill-opacity:1;fill-rule:nonzero;stroke:none"
         id="path54" /><path
         d="m 1861.45,1334.42 c -10.52,-80.75 -84.52,-146.22 -165.28,-146.22 -80.75,0 -137.69,65.47 -127.17,146.22 10.52,80.77 84.52,146.23 165.28,146.23 80.75,0 137.69,-65.46 127.17,-146.23 z m 687.22,-740.022 c -35.62,0 -332.5,0 -441.25,0 -108.75,0 -128.69,124.204 -123.11,167.043 v 0 l 133.33,1023.179 c 3.67,28.22 -16.24,51.13 -44.48,51.13 h -585.23 c -28.24,0 -54.12,-22.91 -57.8,-51.13 L 1285.43,674.059 c -3.68,-28.239 -9.47,-133.411 132.2,-133.411 h 486.78 184.83 c 9.73,-0.386 15.89,0 15.89,0 h 528.54 c -14.37,41.25 -49.37,53.75 -85,53.75"
         style="fill:#e9edf8;fill-opacity:1;fill-rule:nonzero;stroke:none"
         id="path56" /><path
         d="m 1813.95,1334.42 c -10.52,-80.75 -84.52,-146.22 -165.28,-146.22 -80.75,0 -137.69,65.47 -127.17,146.22 10.52,80.77 84.52,146.23 165.28,146.23 80.75,0 137.69,-65.46 127.17,-146.23 z m 256.19,450.2 c 3.67,28.22 -16.24,51.13 -44.48,51.13 h -585.23 c -28.24,0 -54.12,-22.91 -57.8,-51.13 L 1237.93,674.059 c -3.68,-28.239 -9.47,-133.411 132.2,-133.411 h 486.78 200.72 c -141.67,0 -135.88,105.172 -132.21,133.411 l 144.72,1110.561"
         style="fill:#c7cceb;fill-opacity:1;fill-rule:nonzero;stroke:none"
         id="path58" /><path
         d="m 1383.69,2132.94 c -28.71,0 -44.28,-23.27 -34.78,-51.98 9.5,-28.7 40.47,-51.98 69.18,-51.98 28.7,0 44.27,23.28 34.77,51.98 -9.5,28.71 -40.47,51.98 -69.17,51.98"
         style="fill:#161a25;fill-opacity:1;fill-rule:nonzero;stroke:none"
         id="path60" /><path
         d="m 1584.68,2132.94 c -28.7,0 -44.27,-23.27 -34.77,-51.98 9.49,-28.7 40.47,-51.98 69.17,-51.98 28.71,0 44.28,23.28 34.78,51.98 -9.5,28.71 -40.47,51.98 -69.18,51.98"
         style="fill:#161a25;fill-opacity:1;fill-rule:nonzero;stroke:none"
         id="path62" /><path
         d="m 1785.68,2132.94 c -28.71,0 -44.28,-23.27 -34.78,-51.98 9.5,-28.7 40.47,-51.98 69.18,-51.98 28.7,0 44.27,23.28 34.77,51.98 -9.5,28.71 -40.47,51.98 -69.17,51.98"
         style="fill:#161a25;fill-opacity:1;fill-rule:nonzero;stroke:none"
         id="path64" /><path
         d="m 1986.67,2132.94 c -28.7,0 -44.27,-23.27 -34.78,-51.98 9.51,-28.7 40.47,-51.98 69.17,-51.98 28.72,0 44.29,23.28 34.79,51.98 -9.5,28.71 -40.47,51.98 -69.18,51.98"
         style="fill:#161a25;fill-opacity:1;fill-rule:nonzero;stroke:none"
         id="path66" /><path
         d="m 1426.08,2308.54 c -28.71,0 -44.27,-23.28 -34.78,-51.99 9.5,-28.7 40.47,-51.97 69.18,-51.97 28.7,0 44.28,23.27 34.77,51.97 -9.49,28.71 -40.46,51.99 -69.17,51.99"
         style="fill:#161a25;fill-opacity:1;fill-rule:nonzero;stroke:none"
         id="path68" /><path
         d="m 1627.08,2308.54 c -28.71,0 -44.28,-23.28 -34.78,-51.99 9.5,-28.7 40.47,-51.97 69.17,-51.97 28.71,0 44.28,23.27 34.78,51.97 -9.5,28.71 -40.47,51.99 -69.17,51.99"
         style="fill:#161a25;fill-opacity:1;fill-rule:nonzero;stroke:none"
         id="path70" /><path
         d="m 1828.07,2308.54 c -28.7,0 -44.28,-23.28 -34.78,-51.99 9.5,-28.7 40.47,-51.97 69.18,-51.97 28.7,0 44.27,23.27 34.78,51.97 -9.51,28.71 -40.47,51.99 -69.18,51.99"
         style="fill:#161a25;fill-opacity:1;fill-rule:nonzero;stroke:none"
         id="path72" /><path
         d="m 1891.67,3221.47 c 0,-33.6 -27.24,-60.82 -60.82,-60.82 h -374.18 c -33.59,0 -60.82,27.22 -60.82,60.82 v 250.86 c 0,33.6 27.23,60.82 60.82,60.82 h 374.18 c 33.58,0 60.82,-27.22 60.82,-60.82 v -250.86"
         style="fill:#3b4464;fill-opacity:1;fill-rule:nonzero;stroke:none"
         id="path74" /><path
         d="m 1807.92,3221.47 c 0,-33.6 -27.24,-60.82 -60.82,-60.82 h -374.18 c -33.59,0 -60.82,27.22 -60.82,60.82 v 250.86 c 0,33.6 27.23,60.82 60.82,60.82 h 374.18 c 33.58,0 60.82,-27.22 60.82,-60.82 v -250.86"
         style="fill:#1f2435;fill-opacity:1;fill-rule:nonzero;stroke:none"
         id="path76" /><path
         d="m 1690.63,3308.15 c 0,16.58 -13.43,30 -30,30 h -150 c -16.57,0 -30,-13.42 -30,-30 v -220 h 210 v 220"
         style="fill:#525c88;fill-opacity:1;fill-rule:nonzero;stroke:none"
         id="path78" /><path
         d="m 1480.63,3088.15 43.31,-246.25 c 2.91,-16.57 18.7,-30 35.27,-30 h 150 c 16.56,0 27.64,13.43 24.73,30 l -43.31,246.25 h -210"
         style="fill:#404b6c;fill-opacity:1;fill-rule:nonzero;stroke:none"
         id="path80" /><path
         d="m 1665.01,3308.15 c 0,16.58 -13.44,30 -30,30 h -150 c -16.57,0 -30,-13.42 -30,-30 v -220 h 210 v 220"
         style="fill:#3b4464;fill-opacity:1;fill-rule:nonzero;stroke:none"
         id="path82" /><path
         d="m 1455.01,3088.15 43.3,-246.25 c 2.91,-16.57 18.7,-30 35.27,-30 h 150 c 16.57,0 27.64,13.43 24.73,30 l -43.3,246.25 h -210"
         style="fill:#2f374f;fill-opacity:1;fill-rule:nonzero;stroke:none"
         id="path84" /><path
         d="m 1884.74,3637.1 -15.52,159.86 c -2.28,23.42 14.85,44.26 38.28,46.53 23.42,2.28 44.25,-14.86 46.53,-38.28 0.51,-5.22 0,-10.45 -1.28,-15.25 l -41.9,-155.07 c -1.92,-7.1 -9.22,-11.28 -16.33,-9.35 -5.48,1.47 -9.24,6.21 -9.78,11.56"
         style="fill:#ffffff;fill-opacity:1;fill-rule:nonzero;stroke:none"
         id="path86" /><path
         d="m 1986.23,3594.19 106.73,120.02 c 15.65,17.59 42.58,19.18 60.16,3.53 17.6,-15.62 19.18,-42.56 3.54,-60.15 -3.49,-3.92 -7.68,-7.11 -12.07,-9.43 l -142.23,-74.62 c -6.5,-3.42 -14.54,-0.9 -17.97,5.62 -2.64,5.04 -1.7,11.01 1.84,15.03"
         style="fill:#ffffff;fill-opacity:1;fill-rule:nonzero;stroke:none"
         id="path88" /><path
         d="m 2023.72,3490.57 160.59,3.27 c 23.53,0.46 42.99,-18.22 43.46,-41.76 0.49,-23.54 -18.2,-42.98 -41.73,-43.46 -5.23,-0.1 -10.42,0.78 -15.12,2.47 l -151.37,53.61 c -6.94,2.46 -10.56,10.07 -8.1,17.02 1.9,5.35 6.9,8.74 12.27,8.85"
         style="fill:#ffffff;fill-opacity:1;fill-rule:nonzero;stroke:none"
         id="path90" /><path
         d="M 4234.86,2160.34 3703.33,1222.32 4008.11,919.262 4395,1365.65 4234.86,2160.34"
         style="fill:#1a1f2c;fill-opacity:1;fill-rule:nonzero;stroke:none"
         id="path92" /><path
         d="m 4081.25,2373.57 c 0,0 -51.25,269.58 -58.34,307.08 -7.07,37.5 -18.75,55.83 -30,65 -11.25,9.17 -39.57,10 -39.16,0 0.41,-10 4.16,-65.82 7.91,-106.66 3.75,-40.84 7.09,-86.67 10,-114.17 2.93,-27.5 2.72,-77.08 2.72,-77.08 l -137.19,-35.52 -9.69,-46.15 -58.33,-32.5 -7.92,-16.05 c 0,0 5.42,-68.13 31.67,-137.29 26.25,-69.16 54.17,-120.84 55,-133.75 0.83,-12.91 -2.08,-119.99 -2.08,-119.99 h 190 l 66.66,340.41 -21.25,106.67"
         style="fill:#f79884;fill-opacity:1;fill-rule:nonzero;stroke:none"
         id="path94" /><path
         d="m 3974.38,2105.03 c 0,0 0.62,56.25 33.12,90.62 32.5,34.38 79.38,70.63 79.38,70.63 0,0 -13.97,37.28 -16.88,65.2 -2.91,27.92 2.5,46.67 15,55.42 12.5,8.75 25.84,12.08 32.92,-4.17 7.08,-16.25 28.33,-69.16 39.58,-90.41 11.25,-21.25 17.92,-40.83 9.17,-73.33 -8.75,-32.5 -75.84,-170.84 -76.67,-180.42 -0.83,-9.58 4.17,-112.08 4.17,-112.08 h -119.79 v 178.54"
         style="fill:#fac6a2;fill-opacity:1;fill-rule:nonzero;stroke:none"
         id="path96" /><path
         d="m 3902.5,2436.59 c 0,0 29.06,31.25 37.5,41.25 8.44,10 35.94,4.06 46.25,1.56 10.31,-2.5 15.94,-9.06 21.88,-15.31 5.93,-6.25 35.62,-39.22 41.09,-45.23 5.47,-6.02 12.5,-18.21 17.03,-26.96 4.53,-8.75 12.97,-31.09 18.59,-42.5 5.63,-11.4 9.85,-18.12 6.72,-22.18 -3.12,-4.07 -33.43,-15 -55.15,-3.44 -21.72,11.56 -35.16,49.53 -35.63,50.31 -7.34,7.19 -41.72,22.81 -41.72,22.81 l -26.87,-6.87 -29.69,46.56"
         style="fill:#fac6a2;fill-opacity:1;fill-rule:nonzero;stroke:none"
         id="path98" /><path
         d="m 3841.88,2441.28 c -3.33,-7.44 -5.32,-25 -4.69,-29.06 0.62,-4.07 19.37,-26.88 33.75,-39.38 14.37,-12.5 27.19,-25 27.19,-25 14.37,-31.56 19.06,-47.81 34.37,-57.81 15.31,-10 40.94,-10.94 46.25,-5.63 5.31,5.32 2.19,18.13 -4.37,35.94 -6.57,17.81 -12.19,36.88 -14.69,45.63 -2.5,8.75 -4.69,16.87 -10.63,25 -5.93,8.12 -38.28,48.12 -43.28,53.59 -5,5.47 -15.47,14.06 -23.12,13.13 -7.66,-0.94 -38.88,-12.15 -40.78,-16.41"
         style="fill:#fac6a2;fill-opacity:1;fill-rule:nonzero;stroke:none"
         id="path100" /><path
         d="m 3801.46,2395.64 c -8.47,-1.1 -20.63,-2.91 -23.96,-10.83 -3.33,-7.92 -17.5,-37.92 -19.17,-43.54 -1.66,-5.63 2.92,-23.75 2.92,-23.75 0,0 12.29,4.79 19.79,9.79 15,-5.42 43.55,-7.29 43.55,-7.29 11.25,-17.5 18.54,-27.29 32.91,-36.66 14.38,-9.38 34.79,-8.34 40,-3.97 5.21,4.38 4.79,8.96 0,16.88 -4.79,7.92 -20.83,32.92 -24.79,41.04 -3.96,8.13 -8.96,17.3 -16.04,22.3 -7.08,5 -44.58,37.42 -55.21,36.03"
         style="fill:#fac6a2;fill-opacity:1;fill-rule:nonzero;stroke:none"
         id="path102" /><path
         d="m 3847.8,2012.72 -12.8,-11.24 -20,-130.42 c 0,0 49.16,-41.26 151.25,-34.59 102.09,6.67 145,23.34 145,23.34 l -11.25,127.5 -9.03,11.25 c -31.8,-17.09 -167.63,-48.75 -243.17,14.16"
         style="fill:#ffffff;fill-opacity:1;fill-rule:nonzero;stroke:none"
         id="path104" /><path
         d="m 4104.3,1938.54 17.79,-14.3 c 0,0 -30.43,-749.41 -30.43,-767.75 0,-18.34 15.84,-38.34 7.5,-68.34 -8.32,-30 -62.5,-150.83 -96.66,-173.33 -34.16,-22.5 -136.66,-24.172 -185,-20 -48.34,4.168 -65,39.168 -79.17,57.5 -14.16,18.328 -49.16,115 -58.33,130 -9.17,15 -18.33,38.34 -9.17,84.17 9.17,45.83 131.26,751.66 131.26,751.66 l 23.26,20.39 c 0,0 27.56,-45.39 125.07,-48.72 122.11,-4.17 153.88,48.72 153.88,48.72"
         style="fill:#272e42;fill-opacity:1;fill-rule:nonzero;stroke:none"
         id="path106" /><path
         d="m 3858.37,1780.88 c -2.26,-17.06 -13.88,-29.59 -25.95,-27.99 -12.05,1.6 -19.99,16.73 -17.72,33.79 2.26,17.06 13.87,29.59 25.93,27.99 12.07,-1.6 20,-16.73 17.74,-33.79"
         style="fill:#fabd7e;fill-opacity:1;fill-rule:nonzero;stroke:none"
         id="path108" /><path
         d="m 3845.08,1680.81 c -2.27,-17.06 -13.87,-29.59 -25.94,-27.99 -12.05,1.6 -20,16.73 -17.73,33.79 2.26,17.05 13.88,29.59 25.93,27.99 12.07,-1.6 20,-16.73 17.74,-33.79"
         style="fill:#fabd7e;fill-opacity:1;fill-rule:nonzero;stroke:none"
         id="path110" /><path
         d="m 5200.43,2997.02 74.59,-614.7 H 4730 l 83.34,614.7 h 387.09"
         style="fill:#fac6a2;fill-opacity:1;fill-rule:nonzero;stroke:none"
         id="path112" /><path
         d="m 4806.88,2474.4 c 18.12,0 32.5,0 45.62,0 13.13,0 28.13,1.88 48.75,20 20.63,18.13 232.5,211.88 248.13,227.5 11.85,11.86 49.57,100.61 67.1,142.81 l -16.05,132.31 h -387.09 l -63.83,-470.81 c 11.04,-15.69 23.2,-32.92 26.12,-36.81 5.62,-7.5 13.12,-15 31.25,-15"
         style="fill:#f28873;fill-opacity:1;fill-rule:nonzero;stroke:none"
         id="path114" /><path
         d="m 4497.5,3438.98 c 0,0 -35,-143.34 -13.33,-297.5 21.67,-154.16 42.49,-212.5 53.33,-268.33 10.84,-55.83 25,-70 60,-125 35,-55 92.5,-122.91 106.67,-139.58 14.17,-16.67 29.17,-21.67 55,-21.67 25.83,0 64.16,0.84 85.83,10.42 21.67,9.58 243.33,128.32 272.5,147.49 29.17,19.17 35,30.84 42.5,51.67 7.5,20.83 57.5,211.66 57.5,211.66 0,0 142.5,107.51 135,311.67 -7.5,204.16 -175,374.16 -355.84,395.83 -180.82,21.67 -412.5,-48.32 -499.16,-276.66"
         style="fill:#fac6a2;fill-opacity:1;fill-rule:nonzero;stroke:none"
         id="path116" /><path
         d="m 4482.05,3341.69 c 0,0 84.2,-19.79 126.7,-14.79 42.5,5 421.25,86.25 434.59,87.08 13.32,0.83 33.54,7.93 33.54,-29.89 0,-44.69 0,-84.69 0,-100.31 0,-15.63 0.93,-23.44 13.43,-35.31 12.5,-11.88 154.69,-133.75 154.69,-133.75 h 107.79 c 0,0 27.84,65.62 34.4,127.18 6.56,61.57 20.31,220 0,260 -20.31,40 -64.69,72.5 -64.69,72.5 0,0 -13.75,80.63 -48.12,106.25 -34.38,25.63 -264.38,95 -368.13,98.75 -103.75,3.75 -192.5,-35.62 -192.5,-35.62 0,0 3.13,39.37 0.63,66.25 -70,-42.5 -138.13,-79.38 -173.75,-166.25 -1.25,43.75 -28.75,69.37 -28.75,69.37 -43.75,-96.25 -54.38,-229.37 -54.38,-229.37 -25,17.5 -54.37,11.25 -54.37,11.25 0,0 14.37,-70.63 43.12,-96.88 -33.75,-15 -34.37,-33.12 -34.37,-33.12 0,0 30.96,-19.81 70.17,-23.34"
         style="fill:#272e42;fill-opacity:1;fill-rule:nonzero;stroke:none"
         id="path118" /><path
         d="m 5219.06,3126.59 c 0,0 25,37.19 41.25,56.56 16.25,19.38 53.13,22.19 70.63,-4.68 17.5,-26.88 32.19,-52.82 25.62,-80.63 -6.56,-27.81 -44.68,-97.81 -73.43,-121.87 -28.75,-24.07 -91.25,-38.44 -91.25,-38.44 l 27.18,189.06"
         style="fill:#fac6a2;fill-opacity:1;fill-rule:nonzero;stroke:none"
         id="path120" /><path
         d="m 5142.85,3202.57 c 12.03,-10.39 19.96,-22.54 19.96,-45.98 0,-23.44 0,-91.56 0,-96.87 0,-5.32 20.94,1.87 32.82,6.56 11.87,4.69 18.43,14.06 20.62,25.31 2.19,11.25 25,110.98 25,110.98 h -98.4"
         style="fill:#272e42;fill-opacity:1;fill-rule:nonzero;stroke:none"
         id="path122" /><path
         d="m 4897.83,3112.75 c 1.86,-24.39 -11.31,-45.24 -29.38,-46.64 -18.12,-1.34 -34.27,17.3 -36.09,41.74 -1.83,24.42 11.32,45.3 29.38,46.59 18.16,1.47 34.26,-17.23 36.09,-41.69"
         style="fill:#48718d;fill-opacity:1;fill-rule:nonzero;stroke:none"
         id="path124" /><path
         d="m 4805.72,3106.24 c 0.02,-0.14 0.26,2.3 1.41,6.01 1.29,3.61 2.99,9.03 6.73,14.68 1.72,2.92 4.08,5.78 6.49,8.87 2.76,2.75 5.33,6.29 9.04,8.62 3.46,2.74 7.34,5.06 11.49,7.12 4.05,2.31 8.66,3.49 13.08,5.2 9.18,2 18.54,2.33 27.03,1.57 8.54,-0.6 15.95,-3.33 22.15,-5.48 6.38,-1.78 10.79,-5.34 14.22,-6.85 3.31,-1.84 5.11,-3.04 5.11,-3.04 2.1,-1.44 2.67,-4.32 1.24,-6.46 -1,-1.47 -2.67,-2.19 -4.32,-2.03 l -0.52,0.08 c 0,0 -2.08,0.21 -5.57,0.87 -3.46,0.6 -8.38,1.86 -14.15,2.61 -5.77,1.24 -12.51,1.45 -19.46,1.97 -6.97,0.43 -14.18,-0.51 -21.19,-1.86 -13.89,-2.94 -26.36,-11.1 -34.44,-19.19 -8.38,-8.01 -12.72,-14.8 -12.72,-14.8 -0.91,-1.45 -2.81,-1.86 -4.23,-0.93 -1.03,0.62 -1.51,1.77 -1.41,2.89 l 0.02,0.15"
         style="fill:#272e42;fill-opacity:1;fill-rule:nonzero;stroke:none"
         id="path126" /><path
         d="m 4581.34,3089.97 c 2.35,-20.18 -7.86,-37.89 -22.84,-39.63 -15,-1.76 -28.95,13.2 -31.27,33.44 -2.37,20.12 7.93,37.9 22.86,39.59 14.97,1.76 28.99,-13.21 31.25,-33.4"
         style="fill:#48718d;fill-opacity:1;fill-rule:nonzero;stroke:none"
         id="path128" /><path
         d="m 4508.26,3110.06 c 0,0 3.39,6.38 11.62,12.8 4.12,3.17 9.48,6.48 15.9,8.81 6.51,1.96 13.89,3.26 21.41,2.87 7.55,-0.51 14.59,-3.13 20.79,-5.89 6.11,-3.03 10.86,-7.19 14.59,-10.75 4.1,-3.25 5.97,-7.36 7.9,-9.56 1.7,-2.43 2.53,-3.93 2.53,-3.93 1.25,-2.27 0.4,-5.13 -1.88,-6.38 -1.34,-0.74 -2.92,-0.75 -4.23,-0.16 l -0.55,0.29 c 0,0 -1.49,0.69 -3.78,2.06 -2.28,1.34 -5.47,3.47 -9.31,5.45 -3.62,2.5 -8.38,3.93 -12.87,6.25 -4.69,1.82 -9.77,3.1 -14.88,3.53 -5.08,0.89 -10.36,0.57 -15.34,-0.28 -4.89,-1.04 -9.9,-1.82 -13.87,-3.59 -8.36,-2.88 -13.8,-5.81 -13.8,-5.81 -1.53,-0.81 -3.44,-0.23 -4.25,1.29 -0.51,0.94 -0.43,2.09 0.02,3"
         style="fill:#272e42;fill-opacity:1;fill-rule:nonzero;stroke:none"
         id="path130" /><path
         d="m 4664,2802.34 c -12.46,-11.57 6.21,-56.75 52.05,-70.44 45.86,-13.66 113.97,19.86 139.39,50.72 25.48,30.87 22.51,53.08 11.6,59.7 -10.87,6.66 -149.14,9.84 -203.04,-39.98"
         style="fill:#671133;fill-opacity:1;fill-rule:nonzero;stroke:none"
         id="path132" /><path
         d="m 4867.04,2842.32 c -5.18,3.15 -39.53,5.48 -79.77,1.64 -43.05,-24.74 -71.92,-68.65 -89.35,-104.13 5.56,-3.11 11.47,-5.97 18.13,-7.93 45.86,-13.66 113.97,19.86 139.39,50.72 25.48,30.87 22.51,53.08 11.6,59.7"
         style="fill:#d92b4b;fill-opacity:1;fill-rule:nonzero;stroke:none"
         id="path134" /><path
         d="m 4872.59,2836 c -1.42,2.72 -3.26,4.94 -5.55,6.32 -10.87,6.66 -149.14,9.84 -203.04,-39.98 -3.51,-3.26 -4.27,-9.25 -2.91,-16.4 5.63,-1.1 14.5,-1.77 27.54,-0.16 24.22,2.97 127,14.84 183.96,50.22"
         style="fill:#ffffff;fill-opacity:1;fill-rule:nonzero;stroke:none"
         id="path136" /><path
         d="m 4627.01,3096.49 c 0,0 24.28,-31.84 18.44,-68.9 -5.83,-37.07 -27.98,-95.76 -29.02,-103.59 -1.04,-7.72 17.84,-11.22 26.99,-21.42 9.18,-10.28 10.11,-19.36 9.59,-27.48 0,0 -12.64,17 -17.38,19.83 -4.77,2.87 -23.19,6.88 -33.89,14.81 -9.04,6.73 -8.55,16.73 -4.18,24.66 4.37,7.9 33.65,79.71 35.95,100.11 2.33,20.5 -2.28,41.19 -6.5,61.98"
         style="fill:#f28873;fill-opacity:1;fill-rule:nonzero;stroke:none"
         id="path138" /><path
         d="m 4668.24,2908.88 c -7.6,7.43 -11.95,16.01 -3.06,17.88 8.9,1.84 29.2,-9.03 36.65,-16.2 -14.05,-3.94 -22.08,0.16 -24.82,-0.11 -2.71,-0.28 -8.77,-1.57 -8.77,-1.57"
         style="fill:#f28873;fill-opacity:1;fill-rule:nonzero;stroke:none"
         id="path140" /><path
         d="m 4759.36,3167.65 c 0,0 27.24,36.52 98.73,55.56 38.86,10.37 76.73,0.44 76.81,-1.22 0.08,-1.71 -52.6,-12.95 -82.85,-26.51 -30.31,-13.61 -69.03,-46.83 -92.69,-27.83"
         style="fill:#272e42;fill-opacity:1;fill-rule:nonzero;stroke:none"
         id="path142" /><path
         d="m 4552.71,3191.59 c -26.77,1.18 -53.44,-11.35 -53.7,-12.91 -0.26,-1.56 36.18,-0.86 56.28,-6.91 20.1,-6.12 43.87,-28.19 63.25,-6.23 0,0 -30.57,24.49 -65.83,26.05"
         style="fill:#272e42;fill-opacity:1;fill-rule:nonzero;stroke:none"
         id="path144" /><path
         d="m 4846.25,2409.4 h -175.34 v -841.25 h 545.57 v 841.41 l -370.23,-0.16"
         style="fill:#e3e8f7;fill-opacity:1;fill-rule:nonzero;stroke:none"
         id="path146" /><path
         d="m 4270.27,702.309 h 1519.81 c -4.1,44.332 -10.2,120.179 -6.74,146.671 5,38.329 108.32,1181.65 116.66,1239.99 8.34,58.34 1.66,103.34 -48.34,141.67 -50,38.33 -546.66,400.01 -546.66,400.01 l -555.49,-1387.5 -89.06,1231.25 c 0,0 -365.45,-262.5 -396.7,-286.25 -31.25,-23.75 -37.5,-35.89 -40,-67.32 -2.5,-31.43 57.91,-875.18 81.25,-1251.85 l -34.73,-166.671"
         style="fill:#272e42;fill-opacity:1;fill-rule:nonzero;stroke:none"
         id="path148" /><path
         d="m 5790.08,702.309 c -4.1,44.332 -10.2,120.179 -6.74,146.671 3.28,25.219 49.13,528.67 82.49,886.82 H 5608.54 L 4502.95,702.309 h 1287.13"
         style="fill:#1f2435;fill-opacity:1;fill-rule:nonzero;stroke:none"
         id="path150" /><path
         d="m 4860,2409.4 h -93.48 v -50 l 30.98,-106.25 -108.75,-493.75 58.75,-486.25 200.7,425 -54.45,557.5 84.37,98.75 v 55 H 4860"
         style="fill:#d92b4b;fill-opacity:1;fill-rule:nonzero;stroke:none"
         id="path152" /><path
         d="m 4755.66,2571.64 99.34,-152.78 382.01,276.74 49.22,-32.45 -143.38,-470 -290.35,205 -171.47,-138.75 -11.03,173.75 38.13,97.5 47.53,40.99"
         style="fill:#ffffff;fill-opacity:1;fill-rule:nonzero;stroke:none"
         id="path154" /><path
         d="M 5286.23,2663.15 4755,1300.65 c 0,0 -51.66,921.66 -57.08,979.16 -5.42,57.5 10.21,250.84 10.21,250.84 0,0 -75.63,-52.5 -78.75,-56.25 -3.13,-3.75 -112.5,-264.37 -118.13,-274.37 -5.62,-10 -4.37,-27.5 0,-33.13 4.38,-5.62 81.25,-114.37 81.25,-114.37 0,0 -67.5,-73.13 -77.5,-83.13 -10,-10 -11.28,-19.37 -7.52,-33.12 3.77,-13.75 225.02,-675.63 225.02,-675.63 0,0 -33.12,-107.5 -33.75,-116.87 -0.62,-9.38 0.63,-23.75 0.63,-23.75 0,0 563.12,777.28 573.96,792.28 10.83,15 12.5,28.34 5.83,39.17 -6.67,10.83 -74.17,123.33 -74.17,123.33 0,0 151.66,88.32 165,94.16 13.34,5.84 20,19.16 20.84,32.5 0.83,13.34 -19.86,371.26 -20.35,381.47 -0.49,10.2 -2.15,17.71 -7.15,22.29 -5,4.58 -77.11,57.92 -77.11,57.92"
         style="fill:#3a4260;fill-opacity:1;fill-rule:nonzero;stroke:none"
         id="path156" /><path
         d="m 4993.34,883.57 c 0,0 -271.67,22.078 -291.67,24.578 -20,2.5 -43.33,-6.937 -60.83,-15.128 -17.5,-8.2 -124.17,-60.7 -142.5,-73.2 -18.34,-12.5 -44.18,-57.5 -55.84,-70 -11.66,-12.5 -20.83,-38.351 -32.91,-47.511 -12.09,-9.161 -12.09,-22.489 -5,-26.661 7.08,-4.168 32.5,-2.5 45,2.922 0,0 -9.18,-15.422 -13.34,-21.25 -4.16,-5.832 7.5,-20.422 40,-14.172 32.5,6.25 62.91,40.422 75.41,52.922 12.5,12.5 83.75,30.828 83.75,30.828 0,0 77.09,-22.078 127.51,-35.828 50.42,-13.75 87.92,-25.832 150,-14.582 62.08,11.25 80.42,18.75 80.42,18.75 V 883.57"
         style="fill:#fac6a2;fill-opacity:1;fill-rule:nonzero;stroke:none"
         id="path158" /><path
         d="M 5075.84,919.262 4967.5,907.32 v -255 l 108.34,-9.172 v 276.114"
         style="fill:#ffffff;fill-opacity:1;fill-rule:nonzero;stroke:none"
         id="path160" /><path
         d="m 5895.23,2174.63 c 0,0 258.11,-1158.97 269.77,-1210.642 11.66,-51.668 10,-116.668 -13.34,-156.668 -23.32,-40 -85.61,-181.672 -248.63,-181.672 -163.03,0 -864.69,0 -864.69,0 v 310 l 628.32,98.342 c 0,0 -16.66,13.32 -10,31.66 6.68,18.34 15,54.38 15,54.38 0,0 -52.92,335.63 -66.45,427.29 -13.54,91.66 3.58,651.28 290.02,627.31"
         style="fill:#272e42;fill-opacity:1;fill-rule:nonzero;stroke:none"
         id="path162" /></g></g></svg>
